<svg xmlns="http://www.w3.org/2000/svg" viewBox="0 -665 3041.785 687">
<rect x="0" y="-665" width="3041.785" height="687" fill="#ECE4D4"/>
<g transform="scale(1,-1)">
  <path transform="translate(0.00,0.00)" d="M668 -17Q659 -17 632.5 -2.0Q606 13 582 46Q578 51 557.5 76.0Q537 101 505.5 138.5Q474 176 437.0 220.0Q400 264 363.0 308.0Q326 352 294.0 389.5Q262 427 240.5 452.5Q219 478 214 484Q207 493 202.0 496.5Q197 500 193 500Q188 500 186.0 492.5Q184 485 184 479Q183 430 182.0 366.0Q181 302 180.0 234.0Q179 166 179 104Q179 77 192.5 54.0Q206 31 243 24Q260 21 268.0 17.0Q276 13 276 6Q276 0 268.0 -2.5Q260 -5 247 -5Q220 -5 206.5 -3.5Q193 -2 182.5 -1.0Q172 0 153 0Q135 0 125.0 -1.0Q115 -2 102.0 -3.5Q89 -5 62 -5Q49 -5 41.0 -2.5Q33 0 33 6Q33 13 41.0 17.0Q49 21 66 25Q95 33 108.0 54.5Q121 76 124 107Q128 145 132.0 207.5Q136 270 139.0 347.5Q142 425 142 507Q142 560 114.5 583.0Q87 606 43 620Q39 622 25.5 628.5Q12 635 12 644Q12 653 21.0 655.5Q30 658 35 658Q64 657 82.0 656.5Q100 656 114.0 655.0Q128 654 145.0 653.5Q162 653 189 653Q198 653 203.0 648.0Q208 643 213 636Q217 630 239.5 602.5Q262 575 295.5 533.5Q329 492 369.0 443.5Q409 395 449.0 346.5Q489 298 523.0 256.5Q557 215 579.5 188.0Q602 161 606 156Q610 152 617.5 144.0Q625 136 631 136Q640 136 641 157Q641 171 641.5 210.5Q642 250 642.5 306.5Q643 363 643.0 429.0Q643 495 643 564Q642 584 622.0 600.0Q602 616 585 619Q568 622 554.0 627.0Q540 632 540 639Q540 645 554.0 647.5Q568 650 581 650Q591 650 600.5 650.0Q610 650 619.5 650.0Q629 650 638 650Q662 650 676.0 650.5Q690 651 706.5 652.0Q723 653 753 653Q766 653 774.0 650.5Q782 648 782 642Q782 628 749 622Q712 615 700.0 604.0Q688 593 686 568Q686 563 685.5 529.0Q685 495 685.0 443.0Q685 391 684.5 331.0Q684 271 684.0 211.5Q684 152 684 105Q684 81 685.5 61.5Q687 42 688.0 28.5Q689 15 689 8Q689 -8 682.5 -12.5Q676 -17 668 -17Z" fill="#1A1A1A"/>
  <path transform="translate(792.00,0.00)" d="M234 -14Q178 -14 133.0 12.0Q88 38 61.5 83.5Q35 129 35 187Q35 229 51.5 269.0Q68 309 98.0 342.0Q128 375 168.0 394.5Q208 414 254 414Q312 414 358.5 386.0Q405 358 432.5 312.5Q460 267 460 213Q460 155 434.5 103.0Q409 51 359.0 18.5Q309 -14 234 -14ZM255 16Q289 16 316.0 29.0Q343 42 358 71Q370 94 374.0 127.0Q378 160 378 189Q378 237 360.5 281.5Q343 326 311.5 354.5Q280 383 237 383Q210 383 188.5 374.5Q167 366 149 343Q129 318 123.0 282.0Q117 246 117 210Q117 161 135.0 116.5Q153 72 184.0 44.0Q215 16 255 16Z" fill="#1A1A1A"/>
  <path transform="translate(1287.00,0.00)" d="M213 -15Q158 -15 117.0 12.0Q76 39 53.0 88.5Q30 138 30 203Q30 261 56.5 308.5Q83 356 127.0 385.0Q171 414 223 414Q263 414 294.0 398.0Q325 382 342.5 353.5Q360 325 360 288Q360 257 330 257H119Q105 257 99.5 249.5Q94 242 94 220Q94 172 115.0 132.5Q136 93 171.0 69.5Q206 46 248 46Q278 46 302.5 57.5Q327 69 346 91Q350 96 352.0 97.5Q354 99 357 99Q365 99 365 89Q365 70 347 47Q332 28 311.0 14.0Q290 0 265.0 -7.5Q240 -15 213 -15ZM121 288H212Q236 288 253.0 289.0Q270 290 286 293Q291 294 292.5 299.5Q294 305 294 315Q294 344 268.5 364.5Q243 385 208 385Q185 385 162.0 371.5Q139 358 124.0 338.0Q109 318 109 298Q109 288 121 288Z" fill="#1A1A1A"/>
  <path transform="translate(1677.00,0.00)" d="M44 -3Q36 -3 30.0 -1.0Q24 1 24 8Q24 15 30.5 18.0Q37 21 47 24Q61 29 75.5 35.5Q90 42 90 62V277Q90 304 84.0 324.5Q78 345 52 349Q48 350 45.5 353.0Q43 356 43 362Q43 372 51 374Q78 381 94.0 388.5Q110 396 122.5 405.5Q135 415 153 426Q155 427 157.0 428.5Q159 430 162 430Q168 430 168 423Q168 416 165.5 394.5Q163 373 163 359Q163 349 165 347H167Q190 369 227.5 391.5Q265 414 323 414Q359 414 383.0 398.5Q407 383 423 345H426Q458 374 499.0 394.0Q540 414 589 414Q622 414 644.0 394.0Q666 374 677.5 342.0Q689 310 689 275V62Q689 42 703.0 35.5Q717 29 732 24Q742 21 748.5 18.0Q755 15 755 8Q755 2 750.5 -0.5Q746 -3 735 -3Q715 -3 704.0 -1.5Q693 0 683.5 1.0Q674 2 656 2Q639 2 628.0 1.0Q617 0 605.0 -1.5Q593 -3 573 -3Q564 -3 558.5 -0.5Q553 2 553 8Q553 16 559.5 19.0Q566 22 576 24Q592 28 605.5 35.0Q619 42 619 62V272Q619 296 608.0 317.5Q597 339 579.0 353.0Q561 367 539 367Q514 367 492.5 361.0Q471 355 452 340Q424 318 424 268V62Q424 42 439.0 35.0Q454 28 469 24Q479 22 485.5 18.5Q492 15 492 8Q492 2 487.0 -0.5Q482 -3 472 -3Q452 -3 440.5 -1.5Q429 0 418.5 1.0Q408 2 390 2Q373 2 362.0 1.0Q351 0 339.0 -1.5Q327 -3 307 -3Q299 -3 293.0 -0.5Q287 2 287 8Q287 16 294.5 18.5Q302 21 310 24Q325 29 339.5 35.5Q354 42 354 62V272Q354 296 343.0 317.5Q332 339 314.0 353.0Q296 367 274 367Q249 367 227.5 361.0Q206 355 187 340Q160 320 160 268V62Q160 42 174.0 35.5Q188 29 203 24Q211 21 218.5 18.5Q226 16 226 8Q226 2 220.5 -0.5Q215 -3 206 -3Q186 -3 174.5 -1.5Q163 0 153.0 1.0Q143 2 125 2Q108 2 97.5 1.0Q87 0 75.5 -1.5Q64 -3 44 -3Z" fill="#1A1A1A"/>
  <path transform="translate(2455.00,0.00)" d="M117 -14Q99 -14 80.5 0.0Q62 14 49.5 34.0Q37 54 37 72Q37 104 54.0 122.0Q71 140 108 155L210 197Q230 205 233.5 211.0Q237 217 238 237L240 301Q241 327 225.5 346.0Q210 365 181 365Q166 365 151.0 360.0Q136 355 126 347Q120 343 118.0 335.0Q116 327 116 318Q116 314 116.5 309.0Q117 304 117 300Q117 295 104.5 286.5Q92 278 76.5 271.5Q61 265 51 265Q46 265 43.0 267.5Q40 270 40 274Q40 290 50.5 308.5Q61 327 80 343Q103 364 130.0 380.0Q157 396 183.0 405.0Q209 414 229 414Q265 414 288.5 388.5Q312 363 311 325L306 85Q305 64 315.5 51.0Q326 38 342 38Q367 38 379 49Q384 54 387 54Q392 54 395.0 51.0Q398 48 398 43Q398 32 387 21Q371 5 352.5 -4.5Q334 -14 318 -14Q272 -14 245 38H242Q209 11 179.0 -1.5Q149 -14 117 -14ZM164 34Q184 34 198.0 40.5Q212 47 223 58Q228 63 231.5 71.5Q235 80 236 99L238 148Q239 159 237.0 164.0Q235 169 229 169Q227 169 222.0 168.0Q217 167 209 164Q156 145 135.5 124.5Q115 104 115 87Q115 61 130.5 47.5Q146 34 164 34Z" fill="#1A1A1A"/>
  <circle cx="2983.28" cy="44.50" r="58.50" fill="#E10032"/>
</g>
</svg>
